HIERARCHY
ROOT Hips
{
	OFFSET 0.000000 0.000000 0.000000
	CHANNELS 6 Xposition Yposition Zposition Xrotation Yrotation Zrotation
	JOINT LeftUpLeg_virtual
	{
		OFFSET 0.000000 0.000000 0.000000
		CHANNELS 3 Xrotation Yrotation Zrotation
		JOINT LeftUpLeg
		{
			OFFSET 11.394100 -6.187798 -0.413800
			CHANNELS 3 Xrotation Yrotation Zrotation
			JOINT LeftLeg
			{
				OFFSET 0.430247 -32.302673 3.732800
				CHANNELS 3 Xrotation Yrotation Zrotation
				JOINT LeftFoot
				{
					OFFSET -0.430247 -48.264931 -6.423300
					CHANNELS 3 Xrotation Yrotation Zrotation
					JOINT LeftToeBase
					{
						OFFSET 4.230900 -16.068199 23.438400
						CHANNELS 3 Xrotation Yrotation Zrotation
						JOINT LeftToe_End
						{
							OFFSET 4.510700 0.695400 19.974600
							CHANNELS 3 Xrotation Yrotation Zrotation
							End Site
							{
								OFFSET 0 0 0
							}
						}
					}
				}
			}
		}
	}
	JOINT RightUpLeg_virtual
	{
		OFFSET 0.000000 0.000000 0.000000
		CHANNELS 3 Xrotation Yrotation Zrotation
		JOINT RightUpLeg
		{
			OFFSET -11.333700 -6.187798 -0.413800
			CHANNELS 3 Xrotation Yrotation Zrotation
			JOINT RightLeg
			{
				OFFSET -0.430392 -32.302628 3.733000
				CHANNELS 3 Xrotation Yrotation Zrotation
				JOINT RightFoot
				{
					OFFSET 0.430392 -48.264973 -6.423500
					CHANNELS 3 Xrotation Yrotation Zrotation
					JOINT RightToeBase
					{
						OFFSET -4.230900 -16.068199 23.438400
						CHANNELS 3 Xrotation Yrotation Zrotation
						JOINT RightToe_End
						{
							OFFSET -4.510700 0.695400 19.974600
							CHANNELS 3 Xrotation Yrotation Zrotation
							End Site
							{
								OFFSET 0 0 0
							}
						}
					}
				}
			}
		}
	}
	JOINT Spine_virtual
	{
		OFFSET 0.000000 0.000000 0.000000
		CHANNELS 3 Xrotation Yrotation Zrotation
		JOINT Spine
		{
			OFFSET -0.002400 12.777504 0.315300
			CHANNELS 3 Xrotation Yrotation Zrotation
			JOINT Spine1
			{
				OFFSET -0.002067 5.816869 0.032633
				CHANNELS 3 Xrotation Yrotation Zrotation
				JOINT Spine1_split
				{
					OFFSET -0.002067 5.816869 0.032633
					CHANNELS 3 Xrotation Yrotation Zrotation
					JOINT Spine2
					{
						OFFSET -0.002067 5.816869 0.032633
						CHANNELS 3 Xrotation Yrotation Zrotation
						JOINT Neck_virtual
						{
							OFFSET 0.000000 0.000000 0.000000
							CHANNELS 3 Xrotation Yrotation Zrotation
							JOINT Neck
							{
								OFFSET -0.003700 21.199493 -0.826900
								CHANNELS 3 Xrotation Yrotation Zrotation
								JOINT Head
								{
									OFFSET 0.000000 20.442200 4.834800
									CHANNELS 3 Xrotation Yrotation Zrotation
									JOINT HeadTop_End
									{
										OFFSET 0.000000 34.668396 4.968400
										CHANNELS 3 Xrotation Yrotation Zrotation
										End Site
										{
											OFFSET 0 0 0
										}
									}
								}
							}
						}
						JOINT LeftShoulder_virtual
						{
							OFFSET 0.000000 0.000000 0.000000
							CHANNELS 3 Xrotation Yrotation Zrotation
							JOINT LeftShoulder
							{
								OFFSET 3.288150 8.794197 -1.372250
								CHANNELS 3 Xrotation Yrotation Zrotation
								JOINT LeftShoulder_split
								{
									OFFSET 3.288150 8.794197 -1.372250
									CHANNELS 3 Xrotation Yrotation Zrotation
									JOINT LeftArm
									{
										OFFSET 11.953299 -2.279007 -0.146200
										CHANNELS 3 Xrotation Yrotation Zrotation
										JOINT LeftForeArm
										{
											OFFSET 18.448900 0.000000 0.000000
											CHANNELS 3 Xrotation Yrotation Zrotation
											JOINT LeftHand
											{
												OFFSET 29.527798 0.000000 0.000000
												CHANNELS 3 Xrotation Yrotation Zrotation
												End Site
												{
													OFFSET 0 0 0
												}
											}
										}
									}
								}
							}
						}
						JOINT RightShoulder_virtual
						{
							OFFSET 0.000000 0.000000 0.000000
							CHANNELS 3 Xrotation Yrotation Zrotation
							JOINT RightShoulder
							{
								OFFSET -3.249400 8.794197 -1.372250
								CHANNELS 3 Xrotation Yrotation Zrotation
								JOINT RightShoulder_split
								{
									OFFSET -3.249400 8.794197 -1.372250
									CHANNELS 3 Xrotation Yrotation Zrotation
									JOINT RightArm
									{
										OFFSET -11.953299 -2.279007 -0.146200
										CHANNELS 3 Xrotation Yrotation Zrotation
										JOINT RightForeArm
										{
											OFFSET -18.448900 0.000000 0.000000
											CHANNELS 3 Xrotation Yrotation Zrotation
											JOINT RightHand
											{
												OFFSET -29.527802 0.000000 0.000000
												CHANNELS 3 Xrotation Yrotation Zrotation
												End Site
												{
													OFFSET 0 0 0
												}
											}
										}
									}
								}
							}
						}
					}
				}
			}
		}
	}
}
MOTION
Frames: 9
Frame Time: 0.03333333
0.312976 137.406693 9.812885 0.000000 0.000000 0.000000 10.367152 -7.268360 9.494840 -109.718670 -6.592245 15.078648 68.422984 -1.329221 -8.009173 20.508147 -13.792070 5.733003 -0.081191 -1.502065 1.399850 0.000000 0.000000 0.000000 9.211174 2.008677 8.525396 -101.768685 4.892927 -1.002821 118.963686 -3.976101 -5.082424 37.154385 11.822204 10.338469 15.706828 -0.930429 -2.555948 0.000000 0.000000 0.000000 3.249120 -2.985202 12.015289 29.394160 -8.479622 -11.389700 0.749642 -3.571708 -2.120793 2.998742 -0.740234 0.659188 0.000000 0.000000 0.000000 3.642231 -1.876166 -1.331937 -22.630068 4.708787 6.192912 18.423042 3.916349 -18.833799 0.000000 0.000000 0.000000 2.786826 -2.152948 -1.119744 13.011379 -39.906780 33.035972 -4.187003 -0.435271 0.919430 -66.781628 14.976196 18.061192 -50.695997 -70.268856 -34.049944 0.000000 0.000000 0.000000 3.065496 -2.315422 -0.884340 1.239732 9.503242 -16.572993 4.690068 2.457507 -2.994205 -86.515431 -11.061398 -15.906570 -61.837268 67.126949 58.031917 0.000000 0.000000 0.000000 
-0.915635 136.961929 14.876751 0.000000 0.000000 0.000000 8.257176 -7.687856 9.617337 -108.509658 -6.419073 15.773296 65.785582 -1.133678 -8.179949 21.251799 -12.256113 7.199442 -0.700154 -1.145728 0.824371 0.000000 0.000000 0.000000 8.000926 -1.168928 9.204067 -99.512427 3.915551 -3.103424 116.574554 -4.098475 -4.172414 36.754078 10.527924 11.522780 13.543189 -0.989646 -2.714329 0.000000 0.000000 0.000000 1.865467 -3.200559 11.235239 29.077529 -8.324492 -11.064102 0.391485 -3.345650 -2.422997 2.095864 -2.153449 0.777447 0.000000 0.000000 0.000000 3.601850 -1.756103 -1.665694 -22.639468 3.768493 7.334838 17.905293 4.652192 -19.486111 0.000000 0.000000 0.000000 2.519727 -1.997036 -1.503718 10.935272 -38.779365 30.176008 -3.472506 -1.778458 1.622892 -64.886647 13.917112 16.701290 -58.794104 -71.564605 -42.237296 0.000000 0.000000 0.000000 2.925408 -2.125398 -1.285847 0.763351 9.505806 -16.769428 5.568121 1.536691 -0.945486 -85.378451 -11.242833 -13.458986 -62.612167 66.786990 58.925777 0.000000 0.000000 0.000000 
-2.051082 136.459122 22.185219 0.000000 0.000000 0.000000 6.000146 -10.256708 10.179118 -102.813130 -6.784066 15.633738 58.170433 0.070368 -8.269561 24.435022 -9.236805 7.597411 -1.198957 -0.593554 -0.010494 0.000000 0.000000 0.000000 5.979619 -6.955428 10.272053 -92.454732 2.155762 -5.768814 108.383757 -4.281441 -3.598500 35.931129 7.590846 12.138558 14.354889 -0.841998 -1.556352 0.000000 0.000000 0.000000 -0.004642 -5.182534 10.589191 27.294355 -7.633769 -10.065695 0.534404 -3.026558 -3.368524 1.159002 -3.533922 1.376665 0.000000 0.000000 0.000000 4.183697 -1.686072 -2.636278 -22.165999 2.897273 9.713622 18.363416 5.917468 -19.997372 0.000000 0.000000 0.000000 2.948622 -1.877515 -2.526678 7.472886 -35.900745 25.106409 -2.674699 -2.759461 1.710089 -60.730777 10.620039 14.149888 -64.418308 -72.354195 -47.772699 0.000000 0.000000 0.000000 3.241490 -2.061751 -2.363475 0.406084 11.510067 -15.884742 5.529666 0.915209 0.424670 -82.689111 -12.388869 -11.363409 -66.628318 66.667509 62.913590 0.000000 0.000000 0.000000 
-2.796344 135.844193 30.620510 0.000000 0.000000 0.000000 3.404907 -14.302741 10.640148 -93.346563 -7.855118 15.107426 46.616632 1.927654 -7.982218 29.653546 -5.433074 6.466409 -0.731533 0.110145 -1.344857 0.000000 0.000000 0.000000 3.605681 -13.490633 11.067110 -80.809027 -0.549886 -8.259241 94.289655 -4.535646 -3.227425 35.527424 3.737611 11.865590 16.533805 -0.517449 0.111573 0.000000 0.000000 0.000000 -2.495494 -9.018013 9.965936 24.416816 -6.537847 -8.336774 1.276477 -2.641117 -4.730711 1.238849 -4.486981 1.846280 0.000000 0.000000 0.000000 5.065986 -1.665837 -3.972844 -21.125138 2.208177 12.629167 19.441497 7.464741 -20.371289 0.000000 0.000000 0.000000 3.958904 -1.769347 -4.007846 3.526140 -31.555030 18.760928 -1.456442 -2.847268 1.736626 -55.468236 5.423285 10.960135 -64.567069 -72.349038 -47.614301 0.000000 0.000000 0.000000 3.971062 -2.048468 -3.905676 0.127392 15.056807 -14.276601 5.056757 0.933712 1.277916 -79.453255 -14.775852 -10.524317 -73.409289 66.592282 69.552096 0.000000 0.000000 0.000000 
-3.233723 134.607590 40.032154 0.000000 0.000000 0.000000 0.598121 -19.884303 10.790003 -81.486786 -9.673556 14.449747 33.505315 3.817948 -6.900406 35.766248 -2.047438 3.989332 0.497427 0.814522 -2.930903 0.000000 0.000000 0.000000 1.132360 -19.650367 11.248106 -66.577187 -4.184952 -10.283298 75.764611 -4.332568 -3.267186 36.001688 0.858639 11.673993 16.606673 -0.112057 0.984861 0.000000 0.000000 0.000000 -4.834699 -14.229237 9.150787 20.969413 -5.207452 -5.886014 2.474300 -2.118272 -6.222772 1.354068 -4.519836 1.892152 0.000000 0.000000 0.000000 6.104465 -1.518928 -5.404831 -19.747948 1.934574 15.198404 20.540254 9.204989 -20.680670 0.000000 0.000000 0.000000 5.195806 -1.526783 -5.641529 -0.023490 -26.491170 12.332827 -0.528106 -2.281564 2.244255 -50.619690 -0.397790 8.110882 -60.550105 -71.461264 -42.998448 0.000000 0.000000 0.000000 4.985280 -1.900449 -5.623780 -0.178832 19.407889 -12.356001 4.726318 1.810234 2.136286 -76.856471 -18.229505 -11.234608 -81.222683 66.264467 77.210344 0.000000 0.000000 0.000000 
-3.413312 132.076263 49.778111 0.000000 0.000000 0.000000 -2.326805 -26.603985 10.361963 -68.823370 -12.165901 14.106525 21.446099 4.667346 -4.947518 41.664386 -0.334859 0.742162 0.976678 1.353860 -3.942856 0.000000 0.000000 0.000000 -1.297666 -25.517585 10.842005 -52.658614 -8.040763 -11.503874 56.626175 -3.465403 -3.386326 36.685667 0.003486 12.138413 12.726674 0.118497 0.263077 0.000000 0.000000 0.000000 -6.732152 -20.867102 8.195882 17.636747 -3.792126 -3.098612 3.890878 -1.250767 -7.597780 1.217534 -3.906251 1.966352 0.000000 0.000000 0.000000 7.195340 -1.064495 -6.680249 -18.255108 2.240986 16.771581 21.013068 10.984297 -21.034874 0.000000 0.000000 0.000000 6.330047 -0.948470 -7.146344 -2.763859 -21.392883 6.577127 -0.295158 -1.218131 2.971513 -47.497159 -5.215775 5.823547 -57.817825 -70.567841 -39.508461 0.000000 0.000000 0.000000 6.014923 -1.428017 -7.229038 -0.610294 23.743512 -10.466682 4.711386 3.118735 3.115376 -76.238988 -21.784649 -13.488780 -87.235804 65.618809 83.108430 0.000000 0.000000 0.000000 
-3.468521 127.637543 59.848682 0.000000 0.000000 0.000000 -4.594232 -33.149657 9.606684 -57.295588 -14.696282 14.418574 12.642882 4.237049 -2.917737 46.043405 -0.813142 -2.400778 0.027434 1.650507 -3.888181 0.000000 0.000000 0.000000 -3.350993 -30.769428 10.225933 -41.389259 -11.564558 -12.159248 40.833104 -2.013986 -3.287217 35.717023 0.888108 13.105994 6.316036 0.204060 -2.428933 0.000000 0.000000 0.000000 -7.877355 -28.444565 7.380054 14.707521 -2.338257 -0.264112 5.159796 0.028119 -8.646955 0.891383 -2.833074 1.784843 0.000000 0.000000 0.000000 8.150862 -0.144045 -7.678030 -16.702608 3.058463 16.889938 20.491983 12.817952 -21.556625 0.000000 0.000000 0.000000 7.136279 0.171315 -8.285592 -4.681398 -16.816336 1.755236 -0.094854 -0.153024 3.154425 -46.114555 -7.427264 3.750611 -60.469966 -70.638322 -41.433150 0.000000 0.000000 0.000000 6.857912 -0.433971 -8.467015 -1.249834 27.341053 -8.756580 4.519458 4.109674 4.204819 -77.976773 -24.290782 -16.888374 -90.541486 65.028585 86.309699 0.000000 0.000000 0.000000 
-3.415934 120.960052 69.692581 0.000000 0.000000 0.000000 -5.719010 -39.694983 8.910585 -48.331942 -16.605665 15.315635 8.178461 3.074442 -1.252815 48.131568 -2.948616 -5.016321 -1.747290 1.684626 -2.977137 0.000000 0.000000 0.000000 -5.117216 -36.655419 9.559569 -34.528785 -14.287901 -12.581253 31.649597 -0.813439 -2.761776 30.783116 1.970246 13.262629 1.182496 0.479136 -6.207687 0.000000 0.000000 0.000000 -7.487651 -36.368073 7.257011 12.424634 -0.987780 2.185868 5.925738 1.703687 -9.231048 0.452809 -1.868395 1.653279 0.000000 0.000000 0.000000 8.958362 1.256462 -8.346289 -15.252110 4.336057 15.633161 19.018522 14.608752 -22.127129 0.000000 0.000000 0.000000 7.497221 1.801613 -8.924022 -5.923874 -13.290673 -1.873176 0.112855 0.863522 2.456640 -45.697838 -5.362903 1.937106 -70.462492 -71.833967 -50.919043 0.000000 0.000000 0.000000 7.421898 1.071881 -9.200775 -2.137047 29.655711 -7.017849 3.974730 5.015527 4.917259 -80.995382 -24.527331 -20.205264 -91.932290 64.937265 87.588645 0.000000 0.000000 0.000000 
-3.130541 112.351379 79.198929 0.000000 0.000000 0.000000 -5.273331 -46.349049 9.003779 -42.454615 -17.816525 16.752480 8.655299 1.972212 -0.277531 47.495158 -5.504233 -7.248069 -3.257522 1.514355 -1.993858 0.000000 0.000000 0.000000 -6.303953 -43.263876 9.171639 -32.708458 -15.640450 -13.210258 30.817206 -0.890746 -1.968523 20.965694 1.505338 11.047871 -0.469051 0.763134 -9.429788 0.000000 0.000000 0.000000 -5.599615 -43.892278 8.372964 11.041515 0.145878 3.748729 6.067677 3.543500 -9.290701 0.670511 -1.937167 1.791524 0.000000 0.000000 0.000000 9.418901 2.977832 -8.645353 -14.026886 5.932255 13.415400 17.013870 16.003251 -22.558657 0.000000 0.000000 0.000000 7.497764 3.677024 -9.049090 -6.612199 -11.151073 -4.379297 0.486556 1.714227 1.664413 -45.483237 0.647363 0.261769 -87.593105 -72.902120 -67.897866 0.000000 0.000000 0.000000 7.685873 2.868238 -9.388341 -3.153954 30.525154 -4.957405 2.902121 5.989349 5.361018 -83.431731 -22.803881 -22.095677 -92.410608 65.486187 88.022950 0.000000 0.000000 0.000000 
